<?xml version="1.0" encoding="UTF-8" standalone="no"?>
<!-- Created with Inkscape (http://www.inkscape.org/) -->

<svg
   xmlns:dc="http://purl.org/dc/elements/1.1/"
   xmlns:cc="http://creativecommons.org/ns#"
   xmlns:rdf="http://www.w3.org/1999/02/22-rdf-syntax-ns#"
   xmlns:svg="http://www.w3.org/2000/svg"
   xmlns="http://www.w3.org/2000/svg"
   xmlns:sodipodi="http://sodipodi.sourceforge.net/DTD/sodipodi-0.dtd"
   xmlns:inkscape="http://www.inkscape.org/namespaces/inkscape"
   sodipodi:docname="mpmath.svg"
   id="svg10160"
   version="1.1"
   viewBox="0 0 124.04599 41.976959"
   height="41.976959mm"
   width="124.046mm"
   inkscape:version="0.92.3 (2405546, 2018-03-11)">
  <sodipodi:namedview
     inkscape:window-maximized="1"
     inkscape:window-y="28"
     inkscape:window-x="0"
     inkscape:window-height="821"
     inkscape:window-width="1600"
     showgrid="true"
     inkscape:current-layer="layer1"
     inkscape:document-units="mm"
     inkscape:cy="62.650451"
     inkscape:cx="240.89226"
     inkscape:zoom="1.979899"
     inkscape:pageshadow="2"
     inkscape:pageopacity="0.0"
     borderopacity="1.0"
     bordercolor="#666666"
     pagecolor="#ffffff"
     id="base">
    <inkscape:grid
       id="grid10708"
       type="xygrid"
       originx="-41.76079"
       originy="-224.39583" />
  </sodipodi:namedview>
  <defs
     id="defs10154" />
  <metadata
     id="metadata10157">
    <rdf:RDF>
      <cc:Work
         rdf:about="">
        <dc:format>image/svg+xml</dc:format>
        <dc:type
           rdf:resource="http://purl.org/dc/dcmitype/StillImage" />
      </cc:Work>
    </rdf:RDF>
  </metadata>
  <g
     id="layer1"
     inkscape:groupmode="layer"
     inkscape:label="Layer 1"
     transform="translate(-41.760794,-30.627209)">
    <g
       id="g11092"
       style="stroke:#202020;stroke-opacity:1">
      <path
         style="fill:none;fill-rule:evenodd;stroke:#202020;stroke-width:0.25;stroke-linecap:butt;stroke-linejoin:miter;stroke-miterlimit:4;stroke-dasharray:none;stroke-opacity:1"
         d="m 124.35416,72.104167 1e-5,-3.96875"
         id="path10714"
         inkscape:connector-curvature="0"
         sodipodi:nodetypes="cc" />
      <path
         style="fill:none;fill-rule:evenodd;stroke:#202020;stroke-width:0.5;stroke-linecap:butt;stroke-linejoin:miter;stroke-miterlimit:4;stroke-dasharray:none;stroke-opacity:1"
         d="M 121.70833,72.104167 V 66.8125"
         id="path10716"
         inkscape:connector-curvature="0"
         sodipodi:nodetypes="cc" />
      <path
         style="fill:none;fill-rule:evenodd;stroke:#202020;stroke-width:0.25;stroke-linecap:butt;stroke-linejoin:miter;stroke-miterlimit:4;stroke-dasharray:none;stroke-opacity:1"
         d="m 119.0625,72.104167 v -3.96875"
         id="path10718"
         inkscape:connector-curvature="0"
         sodipodi:nodetypes="cc" />
      <path
         style="fill:none;fill-rule:evenodd;stroke:#202020;stroke-width:0.25;stroke-linecap:butt;stroke-linejoin:miter;stroke-miterlimit:4;stroke-dasharray:none;stroke-opacity:1"
         d="m 113.77083,72.104167 c 0,-1.763889 2e-5,2.960171 0,-3.96875"
         id="path10722"
         inkscape:connector-curvature="0"
         sodipodi:nodetypes="cc" />
      <path
         style="fill:none;fill-rule:evenodd;stroke:#202020;stroke-width:0.5;stroke-linecap:butt;stroke-linejoin:miter;stroke-miterlimit:4;stroke-dasharray:none;stroke-opacity:1"
         d="M 111.125,72.104167 V 66.8125"
         id="path10724"
         inkscape:connector-curvature="0"
         sodipodi:nodetypes="cc" />
      <path
         style="fill:none;fill-rule:evenodd;stroke:#202020;stroke-width:0.25;stroke-linecap:butt;stroke-linejoin:miter;stroke-miterlimit:4;stroke-dasharray:none;stroke-opacity:1"
         d="M 108.47917,72.104166 V 68.135417"
         id="path10724-1"
         inkscape:connector-curvature="0"
         sodipodi:nodetypes="cc" />
      <path
         style="fill:none;fill-rule:evenodd;stroke:#202020;stroke-width:0.5;stroke-linecap:butt;stroke-linejoin:miter;stroke-miterlimit:4;stroke-dasharray:none;stroke-opacity:1"
         d="m 100.54166,72.104166 1e-5,-5.291666"
         id="path10714-7"
         inkscape:connector-curvature="0"
         sodipodi:nodetypes="cc" />
      <path
         style="fill:none;fill-rule:evenodd;stroke:#202020;stroke-width:0.5;stroke-linecap:butt;stroke-linejoin:miter;stroke-miterlimit:4;stroke-dasharray:none;stroke-opacity:1"
         d="M 89.95833,72.104166 V 66.8125"
         id="path10724-3"
         inkscape:connector-curvature="0"
         sodipodi:nodetypes="cc" />
      <g
         id="g10834"
         style="stroke:#202020;stroke-width:1;stroke-miterlimit:4;stroke-dasharray:none;stroke-opacity:1"
         transform="translate(-23.8125,15.875)">
        <path
           sodipodi:nodetypes="cccc"
           inkscape:connector-curvature="0"
           id="path10710"
           d="m 66.145833,48.291667 v 7.9375 H 150.8125 v -7.9375"
           style="fill:none;fill-rule:evenodd;stroke:#202020;stroke-width:1;stroke-linecap:butt;stroke-linejoin:miter;stroke-miterlimit:4;stroke-dasharray:none;stroke-opacity:1" />
        <path
           inkscape:connector-curvature="0"
           id="path10726"
           d="m 129.64583,56.229167 v -7.9375"
           style="fill:none;fill-rule:evenodd;stroke:#202020;stroke-width:1;stroke-linecap:butt;stroke-linejoin:miter;stroke-miterlimit:4;stroke-dasharray:none;stroke-opacity:1" />
        <path
           inkscape:connector-curvature="0"
           id="path10726-9"
           d="m 108.47917,56.229167 v -7.9375"
           style="fill:none;fill-rule:evenodd;stroke:#202020;stroke-width:1;stroke-linecap:butt;stroke-linejoin:miter;stroke-miterlimit:4;stroke-dasharray:none;stroke-opacity:1" />
        <path
           inkscape:connector-curvature="0"
           id="path10726-9-1"
           d="m 87.3125,56.229167 v -7.9375"
           style="fill:none;fill-rule:evenodd;stroke:#202020;stroke-width:1;stroke-linecap:butt;stroke-linejoin:miter;stroke-miterlimit:4;stroke-dasharray:none;stroke-opacity:1" />
      </g>
      <g
         id="g10839"
         style="stroke:#202020;stroke-width:0.80000001;stroke-miterlimit:4;stroke-dasharray:none;stroke-opacity:1"
         transform="translate(-23.8125,15.875)">
        <path
           inkscape:connector-curvature="0"
           id="path10720"
           d="M 140.22916,56.229167 V 49.614584"
           style="fill:none;fill-rule:evenodd;stroke:#202020;stroke-width:0.80000001;stroke-linecap:butt;stroke-linejoin:miter;stroke-miterlimit:4;stroke-dasharray:none;stroke-opacity:1" />
        <path
           inkscape:connector-curvature="0"
           id="path10720-1"
           d="M 119.0625,56.229166 V 49.614583"
           style="fill:none;fill-rule:evenodd;stroke:#202020;stroke-width:0.80000001;stroke-linecap:butt;stroke-linejoin:miter;stroke-miterlimit:4;stroke-dasharray:none;stroke-opacity:1" />
        <path
           inkscape:connector-curvature="0"
           id="path10720-1-2"
           d="M 97.89583,56.229166 V 49.614583"
           style="fill:none;fill-rule:evenodd;stroke:#202020;stroke-width:0.80000001;stroke-linecap:butt;stroke-linejoin:miter;stroke-miterlimit:4;stroke-dasharray:none;stroke-opacity:1" />
      </g>
    </g>
    <g
       id="g11050"
       style="fill:#068d0f;fill-opacity:1;stroke:#25cb2c;stroke-width:0.5;stroke-miterlimit:4;stroke-dasharray:none;stroke-opacity:1">
      <path
         d="m 47.732637,39.341196 -5.721843,0.347249 v 1.357431 h 1.317953 c 1.189372,0 1.382243,0.220978 1.382243,1.578408 v 7.544792 1.231159 c 0,1.294294 -0.353597,1.515272 -2.410889,1.515272 H 42.17152 v 1.136453 h 8.100587 v -1.136453 h -0.12858 c -2.057293,0 -2.41089,-0.220978 -2.41089,-1.515272 v -1.231159 -4.48268 c 0,-2.809566 1.575114,-4.893065 3.664552,-4.893065 0.835775,0 1.73584,0.441954 2.121583,1.041749 0.450032,0.599796 0.642903,1.515273 0.642903,2.809567 v 5.524429 1.262727 c 0,1.262726 -0.353597,1.483704 -2.443034,1.483704 H 51.59006 v 1.136453 h 8.132732 v -1.136453 h -0.128581 c -2.057291,0 -2.410888,-0.220978 -2.410888,-1.483704 v -1.262727 -4.198565 c 0,-3.156817 1.446532,-5.17718 3.696696,-5.17718 1.060791,0 1.928711,0.599795 2.346598,1.578409 0.289308,0.694499 0.385743,1.388999 0.385743,2.620157 v 5.177179 1.262727 c 0,1.262726 -0.353597,1.483704 -2.443034,1.483704 h -0.128581 v 1.136453 h 8.132732 v -1.136453 h -0.128581 c -2.057292,0 -2.410889,-0.220978 -2.410889,-1.515272 v -1.231159 -5.808542 c 0,-1.957226 -0.192871,-2.620158 -1.028645,-3.693475 -0.932211,-1.168023 -2.250163,-1.799386 -3.793133,-1.799386 -2.089437,0 -3.632406,0.978613 -5.014649,3.156816 -0.546468,-1.89409 -2.282308,-3.156816 -4.436036,-3.156816 -1.928711,0 -3.375244,0.915477 -4.628907,2.904271 z"
         style="font-style:normal;font-variant:normal;font-weight:normal;font-stretch:normal;font-size:31.85536957px;line-height:125%;font-family:'Century Schoolbook L';-inkscape-font-specification:'Century Schoolbook L';letter-spacing:0px;word-spacing:0px;fill:#068d0f;fill-opacity:1;stroke:#25cb2c;stroke-width:0.5;stroke-linecap:butt;stroke-linejoin:miter;stroke-miterlimit:4;stroke-dasharray:none;stroke-opacity:1"
         id="path11017"
         inkscape:connector-curvature="0" />
      <path
         d="m 76.299162,39.341196 -5.561118,0.347249 v 1.357431 h 1.157227 c 1.189372,0 1.382243,0.220978 1.382243,1.578408 v 13.921561 1.262727 c 0,1.262727 -0.353597,1.483704 -2.410889,1.483704 h -0.128581 v 1.136454 h 8.357749 v -1.136454 h -0.353597 c -2.089437,0 -2.443034,-0.220977 -2.443034,-1.483704 v -1.262727 -4.577383 c 1.060791,1.830953 2.282308,2.557021 4.243163,2.557021 3.728842,0 6.493329,-3.377794 6.493329,-7.892042 0,-4.356406 -2.764487,-7.765768 -6.300457,-7.765768 -1.993001,0 -3.310955,0.820772 -4.436035,2.714862 z m 3.857422,1.231158 c 2.218017,0 3.503825,2.178203 3.503825,5.871679 0,4.072293 -1.317953,6.376769 -3.600261,6.376769 -2.282308,0 -3.793132,-2.336045 -3.793132,-5.966383 0,-3.914453 1.446534,-6.282065 3.889568,-6.282065 z"
         style="font-style:normal;font-variant:normal;font-weight:normal;font-stretch:normal;font-size:31.85536957px;line-height:125%;font-family:'Century Schoolbook L';-inkscape-font-specification:'Century Schoolbook L';letter-spacing:0px;word-spacing:0px;fill:#068d0f;fill-opacity:1;stroke:#25cb2c;stroke-width:0.5;stroke-linecap:butt;stroke-linejoin:miter;stroke-miterlimit:4;stroke-dasharray:none;stroke-opacity:1"
         id="path11019"
         inkscape:connector-curvature="0" />
    </g>
    <g
       id="g11046"
       style="fill:#094194;fill-opacity:1;stroke:#48aeff;stroke-width:0.30000001;stroke-miterlimit:4;stroke-dasharray:none;stroke-opacity:1"
       transform="matrix(0.98773721,0,0,1,1.0918258,0)">
      <path
         d="m 94.75753,39.341196 -5.721843,0.347249 v 1.357431 h 1.317952 c 1.189372,0 1.382243,0.220978 1.382243,1.578408 v 7.544792 1.231159 c 0,1.294294 -0.353597,1.515272 -2.410889,1.515272 h -0.12858 V 54.05196 H 97.297 v -1.136453 h -0.128582 c -2.057291,0 -2.410888,-0.220978 -2.410888,-1.515272 v -1.231159 -4.48268 c 0,-2.809566 1.575114,-4.893065 3.664551,-4.893065 0.835774,0 1.735839,0.441954 2.121579,1.041749 0.45004,0.599796 0.64291,1.515273 0.64291,2.809567 v 5.524429 1.262727 c 0,1.262726 -0.3536,1.483704 -2.443037,1.483704 h -0.128581 v 1.136453 h 8.132728 v -1.136453 h -0.12858 c -2.05728,0 -2.41088,-0.220978 -2.41088,-1.483704 v -1.262727 -4.198565 c 0,-3.156817 1.44653,-5.17718 3.69669,-5.17718 1.06079,0 1.92872,0.599795 2.3466,1.578409 0.2893,0.694499 0.38574,1.388999 0.38574,2.620157 v 5.177179 1.262727 c 0,1.262726 -0.3536,1.483704 -2.44303,1.483704 h -0.12858 v 1.136453 h 8.13273 v -1.136453 h -0.12858 c -2.0573,0 -2.41089,-0.220978 -2.41089,-1.515272 v -1.231159 -5.808542 c 0,-1.957226 -0.19287,-2.620158 -1.02865,-3.693475 -0.9322,-1.168023 -2.25016,-1.799386 -3.79313,-1.799386 -2.08944,0 -3.63241,0.978613 -5.01465,3.156816 -0.54647,-1.89409 -2.28231,-3.156816 -4.436033,-3.156816 -1.928711,0 -3.375245,0.915477 -4.628907,2.904271 z"
         style="font-style:normal;font-variant:normal;font-weight:normal;font-stretch:normal;font-size:31.85536957px;line-height:125%;font-family:'Century Schoolbook L';-inkscape-font-specification:'Century Schoolbook L';letter-spacing:0px;word-spacing:0px;fill:#094194;fill-opacity:1;stroke:#48aeff;stroke-width:0.30000001;stroke-linecap:butt;stroke-linejoin:miter;stroke-miterlimit:4;stroke-dasharray:none;stroke-opacity:1"
         id="path11021"
         inkscape:connector-curvature="0" />
      <path
         d="m 131.3925,43.887011 c 0,-1.988794 -0.3536,-2.998975 -1.2858,-3.756612 -1.0608,-0.820771 -2.63591,-1.262726 -4.69321,-1.262726 -3.60026,0 -6.26831,1.673113 -6.26831,3.946021 0,1.19959 0.73934,1.957226 1.86443,1.957226 0.99649,0 1.73584,-0.662931 1.73584,-1.609976 0,-0.410387 -0.16073,-0.852341 -0.48218,-1.294295 -0.19288,-0.220977 -0.22502,-0.315682 -0.22502,-0.410386 0,-0.662932 1.31795,-1.231159 2.86093,-1.231159 0.99649,0 2.12157,0.315682 2.6359,0.789205 0.61076,0.50509 0.83578,1.262726 0.83578,2.683293 v 1.231158 c -3.37526,0.568228 -4.4039,0.820773 -5.97901,1.420568 -2.76448,1.010182 -4.11459,2.493885 -4.11459,4.48268 0,2.24134 1.83228,3.693475 4.66106,3.693475 2.21801,0 4.21101,-0.883909 5.59325,-2.493885 0.51433,1.609976 1.31796,2.24134 2.82879,2.24134 1.44653,0 2.95735,-0.915477 2.95735,-1.830954 0,-0.220977 -0.16073,-0.378818 -0.32145,-0.378818 -0.12859,0 -0.25717,0.03157 -0.48217,0.126272 -0.51433,0.18941 -0.64291,0.220978 -0.90008,0.220978 -0.90006,0 -1.22151,-0.599795 -1.22151,-2.178203 z m -3.02164,3.851316 c 0,1.894091 -0.0965,2.336045 -0.64291,3.156817 -0.80364,1.168022 -2.28231,1.957226 -3.66455,1.957226 -1.44654,0 -2.53948,-1.041749 -2.53948,-2.462317 0,-1.325862 0.67506,-2.272907 2.08944,-2.935839 0.99651,-0.441954 2.25017,-0.757636 4.7575,-1.168022 z"
         style="font-style:normal;font-variant:normal;font-weight:normal;font-stretch:normal;font-size:31.85536957px;line-height:125%;font-family:'Century Schoolbook L';-inkscape-font-specification:'Century Schoolbook L';letter-spacing:0px;word-spacing:0px;fill:#094194;fill-opacity:1;stroke:#48aeff;stroke-width:0.30000001;stroke-linecap:butt;stroke-linejoin:miter;stroke-miterlimit:4;stroke-dasharray:none;stroke-opacity:1"
         id="path11023"
         inkscape:connector-curvature="0" />
      <path
         d="m 140.99235,39.341196 v -6.250497 h -1.31795 c -0.32145,4.103861 -1.73584,6.18736 -4.3396,6.37677 v 1.231158 h 2.63591 v 8.049882 c 0,2.209771 0.0643,2.998975 0.38573,3.725044 0.51433,1.325862 1.80013,2.05193 3.66455,2.05193 1.25367,0 2.34661,-0.378818 3.08595,-1.073318 1.06079,-1.010181 1.67155,-2.683293 1.67155,-4.419543 0,-0.189409 0,-0.410386 -0.0322,-0.726067 h -1.3501 c -0.0965,2.841134 -0.93221,4.29327 -2.50732,4.29327 -0.73934,0 -1.38224,-0.378818 -1.60726,-0.915476 -0.19287,-0.441955 -0.28931,-1.231159 -0.28931,-2.367613 v -8.618109 h 4.72534 v -1.357431 z"
         style="font-style:normal;font-variant:normal;font-weight:normal;font-stretch:normal;font-size:31.85536957px;line-height:125%;font-family:'Century Schoolbook L';-inkscape-font-specification:'Century Schoolbook L';letter-spacing:0px;word-spacing:0px;fill:#094194;fill-opacity:1;stroke:#48aeff;stroke-width:0.30000001;stroke-linecap:butt;stroke-linejoin:miter;stroke-miterlimit:4;stroke-dasharray:none;stroke-opacity:1"
         id="path11025"
         inkscape:connector-curvature="0" />
      <path
         d="m 153.67915,30.786223 -5.94685,0.34725 v 1.357431 h 1.54297 c 1.18936,0 1.38224,0.220976 1.38224,1.578408 v 16.099764 1.262727 c 0,1.262726 -0.3536,1.483704 -2.4109,1.483704 h -0.12858 v 1.136453 h 8.13274 v -1.136453 h -0.12858 c -2.08944,0 -2.44304,-0.220978 -2.44304,-1.483704 v -1.262727 -3.25152 c 0,-1.578409 0.22502,-2.998976 0.57862,-3.725044 0.67504,-1.420568 2.12158,-2.399181 3.50382,-2.399181 0.83577,0 1.80013,0.473523 2.28231,1.104886 0.48217,0.694499 0.70719,1.641544 0.70719,3.188384 v 5.082475 1.262727 c 0,1.262726 -0.3536,1.483704 -2.44303,1.483704 h -0.12858 v 1.136453 h 8.13273 v -1.136453 h -0.12858 c -2.05729,0 -2.41089,-0.220978 -2.41089,-1.483704 v -1.262727 -4.956201 c 0,-2.272909 -0.0965,-2.841135 -0.67505,-3.914453 -0.80363,-1.515272 -2.41089,-2.430749 -4.3396,-2.430749 -2.05729,0 -3.63241,0.947045 -5.07894,3.062112 z"
         style="font-style:normal;font-variant:normal;font-weight:normal;font-stretch:normal;font-size:31.85536957px;line-height:125%;font-family:'Century Schoolbook L';-inkscape-font-specification:'Century Schoolbook L';letter-spacing:0px;word-spacing:0px;fill:#094194;fill-opacity:1;stroke:#48aeff;stroke-width:0.30000001;stroke-linecap:butt;stroke-linejoin:miter;stroke-miterlimit:4;stroke-dasharray:none;stroke-opacity:1"
         id="path11027"
         inkscape:connector-curvature="0" />
    </g>
    <g
       aria-label="→"
       transform="scale(1.1359196,0.88034399)"
       style="font-style:normal;font-weight:normal;font-size:14.83878422px;line-height:125%;font-family:sans-serif;letter-spacing:0px;word-spacing:0px;fill:#202020;fill-opacity:1;stroke:none;stroke-width:0.37096959px;stroke-linecap:butt;stroke-linejoin:miter;stroke-opacity:1"
       id="text10960">
      <path
         d="m 128.16817,77.507818 -2.65615,-3.66518 -0.89032,0.652907 1.78065,2.463238 h -9.85295 v 1.09807 h 9.86779 l -1.79549,2.463238 0.89032,0.652907 z"
         style="font-style:normal;font-variant:normal;font-weight:normal;font-stretch:normal;font-family:'TeX Gyre Adventor';-inkscape-font-specification:'TeX Gyre Adventor';fill:#202020;fill-opacity:1;stroke-width:0.37096959px"
         id="path11033"
         inkscape:connector-curvature="0" />
    </g>
    <g
       aria-label="∞"
       transform="scale(1.0591878,0.94411963)"
       style="font-style:normal;font-weight:normal;font-size:23.91209984px;line-height:125%;font-family:sans-serif;letter-spacing:0px;word-spacing:0px;fill:#202020;fill-opacity:1;stroke:none;stroke-width:0.59780246px;stroke-linecap:butt;stroke-linejoin:miter;stroke-opacity:1"
       id="text10964">
      <path
         d="m 150.08471,75.25371 q -0.36195,-0.420329 -0.93406,-1.401099 -0.78229,1.401099 -1.47116,2.019918 -0.86401,0.747254 -2.20673,0.747254 -1.57624,0 -2.61539,-1.179259 -1.09753,-1.237638 -1.09753,-3.280908 0,-1.96154 1.09753,-3.292585 0.98077,-1.179258 2.63874,-1.179258 0.85234,0 1.48283,0.350275 0.73558,0.385302 1.23764,1.050824 0.46703,0.595468 0.93407,1.4011 0.78228,-1.4011 1.47115,-2.019919 0.86401,-0.747253 2.20673,-0.747253 1.57624,0 2.61539,1.179259 1.09753,1.237638 1.09753,3.280908 0,1.96154 -1.09753,3.292584 -0.98077,1.179259 -2.63874,1.179259 -0.85234,0 -1.48283,-0.350275 -0.6305,-0.315247 -1.23764,-1.050825 z m -4.74039,-0.163461 q 1.92652,0 3.08242,-2.802199 -1.48283,-3.059068 -3.08242,-3.059068 -1.16758,0 -1.76305,0.84066 -0.64217,0.899039 -0.64217,2.089974 0,1.307692 0.64217,2.113325 0.65385,0.817308 1.76305,0.817308 z m 7.61265,-5.837915 q -1.7397,0 -3.08242,2.802199 1.47115,3.059068 3.08242,3.059068 1.16758,0 1.76305,-0.84066 0.64217,-0.899039 0.64217,-2.089974 0,-1.307693 -0.64217,-2.113325 -0.65385,-0.817308 -1.76305,-0.817308 z"
         style="fill:#202020;fill-opacity:1;stroke-width:0.59780246px"
         id="path11030"
         inkscape:connector-curvature="0" />
    </g>
  </g>
</svg>
